{
  "accessors": [
    {
      "bufferView": 2,
      "componentType": 5126,
      "count": 4718,
      "max": [
        8.816675186157227,
        3.628786087036133,
        2.2289159297943115
      ],
      "min": [
        -5.461258888244629,
        -3.800771951675415,
        -8.258133888244629
      ],
      "type": "VEC3"
    },
    {
      "bufferView": 2,
      "byteOffset": 56616,
      "componentType": 5126,
      "count": 4718,
      "max": [
        1.0,
        0.9999884963035583,
        1.0
      ],
      "min": [
        -1.0,
        -0.9999856352806091,
        -1.0
      ],
      "type": "VEC3"
    },
    {
      "bufferView": 1,
      "componentType": 5126,
      "count": 4718,
      "max": [
        1.0039329528808594,
        1.0021510124206543
      ],
      "min": [
        0.00023400000645779073,
        -0.0077749998308718204
      ],
      "type": "VEC2"
    },
    {
      "bufferView": 0,
      "componentType": 5125,
      "count": 14235,
      "type": "SCALAR"
    },
    {
      "bufferView": 2,
      "byteOffset": 113232,
      "componentType": 5126,
      "count": 1971,
      "max": [
        7.449368953704834,
        3.0574350357055664,
        2.0982120037078857
      ],
      "min": [
        -1.8486050367355347,
        -3.7203121185302734,
        -6.834025859832764
      ],
      "type": "VEC3"
    },
    {
      "bufferView": 2,
      "byteOffset": 136884,
      "componentType": 5126,
      "count": 1971,
      "max": [
        1.0,
        0.9999996423721313,
        1.0
      ],
      "min": [
        -1.0,
        -0.9999996423721313,
        -1.0
      ],
      "type": "VEC3"
    },
    {
      "bufferView": 1,
      "byteOffset": 37744,
      "componentType": 5126,
      "count": 1971,
      "max": [
        0.6771360039710999,
        1.0021510124206543
      ],
      "min": [
        0.006161999888718128,
        0.04432599991559982
      ],
      "type": "VEC2"
    },
    {
      "bufferView": 0,
      "byteOffset": 56940,
      "componentType": 5125,
      "count": 4905,
      "type": "SCALAR"
    }
  ],
  "asset": {
    "extras": {
      "author": "javadbayat (https://sketchfab.com/javadbayat)",
      "license": "CC-BY-4.0 (http://creativecommons.org/licenses/by/4.0/)",
      "source": "https://sketchfab.com/3d-models/hand-watch-free-model-e3a78e329e7d4050a1c9d1c0bd19e47f",
      "title": "hand watch  (FREE MODEL)"
    },
    "generator": "Sketchfab-12.66.0",
    "version": "2.0"
  },
  "bufferViews": [
    {
      "buffer": 0,
      "byteLength": 76560,
      "name": "floatBufferViews",
      "target": 34963
    },
    {
      "buffer": 0,
      "byteLength": 53512,
      "byteOffset": 76560,
      "byteStride": 8,
      "name": "floatBufferViews",
      "target": 34962
    },
    {
      "buffer": 0,
      "byteLength": 160536,
      "byteOffset": 130072,
      "byteStride": 12,
      "name": "floatBufferViews",
      "target": 34962
    }
  ],
  "buffers": [
    {
      "byteLength": 290608,
      "uri": "scene.bin"
    }
  ],
  "images": [
    {
      "uri": "textures/Scene_-_Root_baseColor.jpeg"
    }
  ],
  "materials": [
    {
      "doubleSided": true,
      "name": "Scene_-_Root",
      "pbrMetallicRoughness": {
        "baseColorTexture": {
          "index": 0
        },
        "roughnessFactor": 0.08983232990000983
      }
    }
  ],
  "meshes": [
    {
      "name": "Object_0",
      "primitives": [
        {
          "attributes": {
            "NORMAL": 1,
            "POSITION": 0,
            "TEXCOORD_0": 2
          },
          "indices": 3,
          "material": 0,
          "mode": 4
        }
      ]
    },
    {
      "name": "Object_1",
      "primitives": [
        {
          "attributes": {
            "NORMAL": 5,
            "POSITION": 4,
            "TEXCOORD_0": 6
          },
          "indices": 7,
          "material": 0,
          "mode": 4
        }
      ]
    }
  ],
  "nodes": [
    {
      "children": [
        1
      ],
      "matrix": [
        0.010416666977107525,
        0.0,
        0.0,
        0.0,
        0.0,
        2.3129647035674605e-18,
        -0.010416666977107525,
        0.0,
        0.0,
        0.010416666977107525,
        2.3129647035674605e-18,
        0.0,
        0.0,
        0.0,
        0.0,
        1.0
      ],
      "name": "Sketchfab_model"
    },
    {
      "children": [
        2,
        3
      ],
      "name": "1.obj.cleaner.materialmerger.gles"
    },
    {
      "mesh": 0,
      "name": "Object_2"
    },
    {
      "mesh": 1,
      "name": "Object_3"
    }
  ],
  "samplers": [
    {
      "magFilter": 9729,
      "minFilter": 9987,
      "wrapS": 10497,
      "wrapT": 10497
    }
  ],
  "scene": 0,
  "scenes": [
    {
      "name": "Sketchfab_Scene",
      "nodes": [
        0
      ]
    }
  ],
  "textures": [
    {
      "sampler": 0,
      "source": 0
    }
  ]
}
